# xmcd CD database file
#
# Track frame offsets:
#	150
#	21178
#	43082
#	73518
#	95337
#	115497
#	147686
#	167583
#	205784
#	233156
#
# Disc length: 3413 seconds
#
# Revision: 0
# Processed by: cddbd v1.4PL0 Copyright (c) Steve Scherf et al.
# Submitted via: CDex 1.50beta9
#
DISCID=8c0d530a
DTITLE=Pete Mitchell Quartet - quirky
DYEAR=2003
DGENRE=Jazz
TTITLE0=Big Kid
TTITLE1=The Prowler
TTITLE2=Flute Song
TTITLE3=Hey Groover!
TTITLE4=Subdued
TTITLE5=Song Without Words
TTITLE6=Running Rampant
TTITLE7=Egyptian Albino
TTITLE8=Surgeon Hookey
TTITLE9=Termination
EXTD=YEAR: 2003
EXTT0=
EXTT1=
EXTT2=
EXTT3=
EXTT4=
EXTT5=
EXTT6=
EXTT7=
EXTT8=
EXTT9=
PLAYORDER=
